<svg width="175" height="28" viewBox="0 0 175 28" fill="none" xmlns="http://www.w3.org/2000/svg">
<path d="M17.2353 20.473C17.2353 22.483 15.6144 24.1096 13.6194 24.1096C11.6245 24.1096 10 22.4794 10 20.473C10 18.4666 11.6209 16.8364 13.6159 16.8364C15.6108 16.8364 17.2317 18.4666 17.2317 20.473" fill="#001042"/>
<path d="M19.4117 3.46223L12.8119 6.43555L20.6835 24.1086L27.2833 21.1353L19.4117 3.46223Z" fill="#001042"/>
<path d="M29.0114 3.46467L22.4116 6.43799L30.2832 24.111L36.883 21.1377L29.0114 3.46467Z" fill="#001042"/>
<path d="M46.9958 8.84326H48.9659L52.571 17.9795L56.0622 8.84326H58.018V20.5699H56.6001V10.6956L52.7349 20.5699H52.2932L48.2997 10.6956V20.5699H46.9958V8.84326Z" fill="white"/>
<path d="M66.4181 15.4533C66.2862 13.6834 65.3743 12.9776 63.9707 12.9776C62.5671 12.9776 61.6551 13.9306 61.4271 15.4533H66.4181ZM59.9772 16.3705V16.2379C59.9772 13.6475 61.623 11.8418 63.9707 11.8418C65.9443 11.8418 67.8038 13.0385 67.8038 16.1054V16.5496H61.3772C61.4414 18.5023 62.3711 19.5843 64.1167 19.5843C65.4384 19.5843 66.2043 19.0934 66.3824 18.0902H67.7362C67.444 19.8136 66.0226 20.7165 64.0989 20.7165C61.6872 20.7165 59.9736 19.011 59.9736 16.3705" fill="white"/>
<path d="M75.4382 15.4533C75.3064 13.6834 74.3944 12.9776 72.9908 12.9776C71.5872 12.9776 70.6752 13.9306 70.4472 15.4533H75.4382ZM68.9973 16.3705V16.2379C68.9973 13.6475 70.6432 11.8418 72.9908 11.8418C74.9644 11.8418 76.824 13.0385 76.824 16.1054V16.5496H70.3974C70.4615 18.5023 71.3913 19.5843 73.1369 19.5843C74.4585 19.5843 75.2244 19.0934 75.4026 18.0902H76.7563C76.4642 19.8136 75.0428 20.7165 73.1191 20.7165C70.7073 20.7165 68.9938 19.011 68.9938 16.3705" fill="white"/>
<path d="M78.9471 18.4198V13.1387H77.7252V11.9922H78.9471V10.0396H80.3008V11.9922H82.2887V13.1387H80.3008V18.2908C80.3008 19.1256 80.6749 19.5376 81.3589 19.5376C81.7828 19.5376 82.1106 19.4731 82.4027 19.3585V20.505C82.1248 20.6017 81.8006 20.6841 81.2449 20.6841C79.6952 20.6841 78.9436 19.7669 78.9436 18.4198" fill="white"/>
<path d="M84.2297 11.9925H85.5834V20.5698H84.2297V11.9925ZM83.9839 9.3018C83.9839 8.81095 84.3936 8.39893 84.8816 8.39893C85.3697 8.39893 85.7794 8.80737 85.7794 9.3018C85.7794 9.79623 85.3732 10.2047 84.8816 10.2047C84.39 10.2047 83.9839 9.79623 83.9839 9.3018Z" fill="white"/>
<path d="M88.113 11.9926H89.4668V13.3541C89.8586 12.5515 90.8027 11.8457 92.2063 11.8457C93.9661 11.8457 95.2058 12.8131 95.2058 15.3067V20.5699H93.8521V15.2064C93.8521 13.698 93.2144 13.0245 91.8465 13.0245C90.5925 13.0245 89.4668 13.827 89.4668 15.3712V20.5699H88.113V11.9926Z" fill="white"/>
<path d="M103.806 16.1233V16.0086C103.806 14.0882 102.762 12.974 101.098 12.974C99.4346 12.974 98.3908 14.2351 98.3908 16.0409V16.1734C98.3908 18.0437 99.5806 19.1579 101.016 19.1579C102.598 19.1579 103.806 18.0437 103.806 16.1233ZM97.1689 21.0604H98.5547C98.7506 22.0457 99.5664 22.5509 101.016 22.5509C102.694 22.5509 103.756 21.7483 103.756 19.9103V18.6635C103.268 19.5019 102.11 20.2865 100.87 20.2865C98.6366 20.2865 96.9872 18.5811 96.9872 16.22V16.1054C96.9872 13.7765 98.6188 11.8418 100.966 11.8418C102.384 11.8418 103.268 12.5297 103.756 13.3681V11.9887H105.11V19.9927C105.092 22.4864 103.414 23.701 101.034 23.701C98.5048 23.701 97.3969 22.5043 97.1689 21.0604Z" fill="white"/>
<path d="M111.209 18.5026C113.556 18.5026 114.668 17.1733 114.668 14.7478V14.6152C114.668 12.204 113.642 10.907 111.176 10.907H110.133V18.499H111.209V18.5026ZM107.489 8.84326H111.305C115.398 8.84326 117.421 11.0718 117.421 14.583V14.7155C117.421 18.2267 115.384 20.5699 111.29 20.5699H107.489V8.84326Z" fill="white"/>
<path d="M124.781 16.3384V16.2238C124.781 14.5828 124.015 13.6012 122.694 13.6012C121.372 13.6012 120.606 14.5506 120.606 16.1915V16.3205C120.606 17.9615 121.358 18.9467 122.694 18.9467C124.029 18.9467 124.781 17.9615 124.781 16.3384ZM118.191 16.3707V16.2381C118.191 13.5474 120.132 11.7954 122.694 11.7954C125.255 11.7954 127.179 13.5187 127.179 16.1915V16.3205C127.179 19.0256 125.237 20.7489 122.676 20.7489C120.114 20.7489 118.191 19.0435 118.191 16.3707Z" fill="white"/>
<path d="M127.83 16.3847V16.2521C127.83 13.479 129.804 11.7915 132.234 11.7915C134.207 11.7915 136.035 12.6621 136.245 15.12H134.011C133.847 14.1203 133.245 13.6617 132.283 13.6617C131.062 13.6617 130.246 14.5789 130.246 16.2199V16.3524C130.246 18.0758 131.012 18.9607 132.333 18.9607C133.277 18.9607 134.047 18.4018 134.161 17.3055H136.298C136.167 19.3405 134.699 20.7486 132.219 20.7486C129.74 20.7486 127.834 19.19 127.834 16.3847" fill="white"/>
<path d="M137.731 18.0261V13.6801H136.637V11.989H137.731V10.1367H140.078V11.989H141.874V13.6801H140.078V17.8147C140.078 18.5026 140.42 18.8322 141.026 18.8322C141.386 18.8322 141.646 18.7821 141.924 18.6674V20.5054C141.596 20.6201 141.126 20.7347 140.488 20.7347C138.692 20.7347 137.731 19.8175 137.731 18.0297" fill="white"/>
<path d="M149.18 16.3384V16.2238C149.18 14.5828 148.414 13.6012 147.093 13.6012C145.771 13.6012 145.005 14.5506 145.005 16.1915V16.3205C145.005 17.9615 145.757 18.9467 147.093 18.9467C148.428 18.9467 149.18 17.9615 149.18 16.3384ZM142.593 16.3707V16.2381C142.593 13.5474 144.535 11.7954 147.096 11.7954C149.658 11.7954 151.581 13.5187 151.581 16.1915V16.3205C151.581 19.0256 149.64 20.7489 147.078 20.7489C144.517 20.7489 142.593 19.0435 142.593 16.3707Z" fill="white"/>
<path d="M152.753 11.9923H155.118V13.6332C155.656 12.4867 156.49 11.8776 157.876 11.8633V14.0775C156.13 14.0596 155.118 14.6364 155.118 16.2737V20.5731H152.753V11.9958V11.9923Z" fill="white"/>
<path d="M158.396 17.8791H160.598C160.697 18.6494 161.072 19.0936 162.098 19.0936C163.013 19.0936 163.433 18.7497 163.433 18.1585C163.433 17.5673 162.928 17.3237 161.706 17.141C159.44 16.797 158.556 16.1414 158.556 14.4682C158.556 12.6804 160.188 11.7954 161.934 11.7954C163.825 11.7954 165.243 12.4833 165.457 14.4539H163.287C163.156 13.7481 162.764 13.422 161.951 13.422C161.186 13.422 160.744 13.7839 160.744 14.307C160.744 14.8301 161.15 15.0629 162.39 15.2421C164.527 15.5538 165.699 16.0948 165.699 17.9328C165.699 19.7708 164.363 20.7525 162.112 20.7525C159.86 20.7525 158.475 19.735 158.393 17.8826" fill="white"/>
</svg>
