<svg width="24" height="23" viewBox="0 0 24 23" fill="none" xmlns="http://www.w3.org/2000/svg">
<path fill-rule="evenodd" clip-rule="evenodd" d="M21.0937 16.5526C20.9654 16.8791 20.9452 17.2381 21.036 17.577L21.906 20.824L18.659 19.954C18.3202 19.8632 17.9611 19.8834 17.6346 20.0117C16.9444 20.2829 16.1913 20.4327 15.3993 20.4327C13.9014 20.4327 12.5292 19.8941 11.4659 19C10.1318 17.8782 11 20.3795 11 18.5C10.968 19 16 19.5 18.659 15C20.3513 15 18.6232 8.88927 19.7304 9.99999C20.833 11.1061 21.5147 12.6321 21.5147 14.3173C21.5147 15.1093 21.3649 15.8624 21.0937 16.5526ZM22.6205 17.1525C22.9656 16.2743 23.1551 15.3179 23.1551 14.3173C23.1551 11.8329 21.9869 9.62138 20.17 8.20194C18.8543 7.17407 20.4581 13.5 18.659 13.5C16 20.4036 12 18 8 18C8 19.7591 8.22922 17.6988 9.21621 19C10.6325 20.8671 12.8751 22.073 15.3993 22.073C16.3999 22.073 17.3563 21.8836 18.2345 21.5385L23.3111 22.8988C23.7177 23.0077 24.0897 22.6357 23.9808 22.2291L22.6205 17.1525Z" fill="#C4C4C4"/>
<path fill-rule="evenodd" clip-rule="evenodd" d="M3.33323 12.8078C3.46153 13.1343 3.48176 13.4933 3.39096 13.8322L2.09395 18.6727L6.93444 17.3757C7.27332 17.2849 7.63238 17.3051 7.95891 17.4334C8.88266 17.7964 9.8901 17.9965 10.9482 17.9965C15.4648 17.9965 19.1263 14.3351 19.1263 9.81846C19.1263 5.30184 15.4648 1.64039 10.9482 1.64039C6.43159 1.64039 2.77014 5.30184 2.77014 9.81846C2.77014 10.8766 2.97026 11.884 3.33323 12.8078ZM1.80646 13.4077C1.36964 12.2959 1.12975 11.0852 1.12975 9.81846C1.12975 4.39588 5.52563 0 10.9482 0C16.3708 0 20.7667 4.39588 20.7667 9.81846C20.7667 15.2411 16.3708 19.6369 10.9482 19.6369C9.68146 19.6369 8.47074 19.397 7.359 18.9602L0.688898 20.7475C0.282316 20.8564 -0.089731 20.4844 0.0192123 20.0778L1.80646 13.4077Z" fill="#C4C4C4"/>
<path d="M8.05909 10.1157C8.05909 10.8707 7.44707 11.4827 6.6921 11.4827C5.93713 11.4827 5.3251 10.8707 5.3251 10.1157C5.3251 9.36077 5.93713 8.74875 6.6921 8.74875C7.44707 8.74875 8.05909 9.36077 8.05909 10.1157Z" fill="#C4C4C4"/>
<path d="M12.4335 10.1157C12.4335 10.8707 11.8215 11.4827 11.0665 11.4827C10.3115 11.4827 9.69949 10.8707 9.69949 10.1157C9.69949 9.36077 10.3115 8.74875 11.0665 8.74875C11.8215 8.74875 12.4335 9.36077 12.4335 10.1157Z" fill="#C4C4C4"/>
<path d="M16.8078 10.1157C16.8078 10.8707 16.1958 11.4827 15.4408 11.4827C14.6859 11.4827 14.0739 10.8707 14.0739 10.1157C14.0739 9.36077 14.6859 8.74875 15.4408 8.74875C16.1958 8.74875 16.8078 9.36077 16.8078 10.1157Z" fill="#C4C4C4"/>
</svg>
